<?xml version="1.0" encoding="UTF-8" ?>
<!DOCTYPE svg PUBLIC "-//W3C//DTD SVG 1.1//EN" "http://www.w3.org/Graphics/SVG/1.1/DTD/svg11.dtd">
<svg width="774pt" height="775pt" viewBox="0 0 774 775" version="1.1" xmlns="http://www.w3.org/2000/svg">
<g id="#fffffffe">
<path fill="#ffffff" opacity="1.00" d=" M 314.47 7.72 C 384.39 -5.50 457.95 0.85 524.41 26.35 C 559.57 39.77 592.73 58.40 622.50 81.42 C 677.85 124.03 721.29 181.91 746.66 246.99 C 744.14 247.00 741.64 247.00 739.14 247.00 C 727.32 217.54 711.94 189.47 693.15 163.87 C 651.92 107.38 594.92 62.46 530.10 36.12 C 468.72 10.83 400.62 2.54 334.89 11.47 C 290.53 17.44 247.31 31.52 207.84 52.59 C 150.72 83.02 101.76 128.43 66.81 182.87 C 42.92 220.21 25.57 261.75 15.99 305.05 C 6.05 349.95 4.38 396.65 10.92 442.17 C 21.78 518.51 56.86 591.16 109.81 647.20 C 159.53 700.45 224.94 738.79 295.71 756.08 C 342.13 767.49 390.72 769.92 438.08 763.53 C 512.03 753.62 582.75 721.04 638.39 671.34 C 689.98 625.72 728.70 565.79 749.06 500.00 C 751.48 500.00 753.91 499.99 756.35 500.00 C 742.72 544.78 720.88 587.06 692.17 624.03 C 649.04 679.83 590.39 723.54 524.46 748.63 C 442.98 779.95 350.81 782.30 267.78 755.41 C 231.39 743.69 196.77 726.48 165.45 704.56 C 110.51 666.27 65.75 613.49 37.13 552.93 C 13.45 503.23 0.91 448.40 0.00 393.38 L 0.00 385.35 C 0.31 320.63 17.09 256.04 48.73 199.56 C 81.86 139.95 131.10 89.44 189.80 54.75 C 228.19 31.95 270.60 15.96 314.47 7.72 Z" />
<path fill="#ffffff" opacity="1.00" d=" M 332.12 59.54 C 395.55 48.92 462.06 57.03 520.87 83.16 C 560.37 100.58 596.35 125.86 626.25 157.00 C 622.97 157.00 619.70 157.01 616.43 156.99 C 588.77 129.31 556.12 106.61 520.44 90.53 C 460.10 63.17 391.28 55.38 326.24 67.67 C 285.48 75.30 246.26 90.96 211.43 113.47 C 174.80 137.13 142.97 168.17 118.36 204.17 C 94.64 238.82 77.80 278.14 69.13 319.23 C 55.23 384.68 61.70 454.43 88.19 515.93 C 117.60 584.79 171.65 642.70 238.17 677.02 C 292.52 705.28 355.04 717.16 416.00 711.71 C 416.00 714.04 416.00 716.38 416.00 718.73 C 368.74 722.84 320.59 716.85 275.89 700.90 C 205.96 676.21 145.07 627.14 105.78 564.28 C 80.33 523.86 63.84 477.87 57.76 430.50 C 52.26 387.52 55.01 343.46 66.21 301.59 C 76.70 262.09 94.64 224.60 118.74 191.59 C 145.45 154.92 179.74 123.80 218.83 100.77 C 253.63 80.22 292.25 66.16 332.12 59.54 Z" />
<path fill="#ffffff" opacity="1.00" d=" M 226.21 160.21 C 273.56 126.38 331.80 108.25 389.98 109.03 C 390.00 111.37 390.00 113.70 390.00 116.04 C 349.80 115.56 309.48 124.03 273.01 141.00 C 209.37 170.41 158.00 225.43 133.38 291.12 C 108.59 356.43 110.37 431.38 138.46 495.37 C 166.40 559.70 220.33 612.25 285.44 638.38 C 329.36 656.18 378.00 661.90 424.90 655.36 C 460.99 650.38 496.04 637.96 527.17 619.03 C 560.21 599.00 588.87 571.83 610.76 540.00 C 613.55 540.00 616.34 539.99 619.14 540.01 C 599.53 569.71 574.18 595.61 544.88 615.83 C 513.49 637.56 477.56 652.70 440.07 659.91 C 393.92 668.84 345.51 665.95 300.82 651.36 C 235.22 630.21 178.42 583.52 144.73 523.43 C 116.25 473.30 104.32 414.14 110.62 356.87 C 115.02 315.55 128.94 275.29 150.98 240.06 C 170.45 208.82 196.18 181.50 226.21 160.21 Z" />
<path fill="#ffffff" opacity="1.00" d=" M 409.78 349.05 C 411.56 342.47 418.76 339.74 424.91 339.14 C 436.78 338.15 448.82 338.72 460.54 340.90 C 460.32 342.83 460.11 344.76 459.90 346.70 C 449.60 346.76 439.30 346.52 429.01 346.85 C 424.54 346.98 418.89 348.51 417.56 353.39 C 416.35 358.43 416.31 363.83 417.57 368.86 C 418.55 372.84 422.24 375.41 426.05 376.33 C 433.94 378.26 442.01 379.41 449.89 381.39 C 455.49 382.80 460.73 386.65 462.42 392.37 C 464.66 399.71 464.59 407.82 462.45 415.18 C 460.35 422.11 452.69 424.95 446.12 425.55 C 433.99 426.56 421.75 425.84 409.72 424.15 C 409.88 422.10 410.04 420.05 410.21 418.00 C 420.49 417.91 430.79 418.19 441.07 417.85 C 445.56 417.39 451.32 417.04 453.73 412.54 C 456.14 407.41 455.86 401.40 454.91 395.95 C 454.24 391.72 450.58 388.74 446.59 387.75 C 438.42 385.69 430.03 384.56 421.88 382.41 C 416.35 380.92 411.44 376.85 409.83 371.24 C 407.75 364.07 407.86 356.24 409.78 349.05 Z" />
<path fill="#ffffff" opacity="1.00" d=" M 644.50 425.06 C 644.50 396.27 644.49 367.48 644.50 338.69 C 647.22 338.68 649.95 338.68 652.69 338.69 C 652.41 355.12 653.35 371.60 652.04 388.00 C 654.97 388.00 657.91 388.00 660.85 388.00 C 667.80 380.49 674.77 372.98 681.70 365.45 C 684.87 365.43 688.04 365.43 691.22 365.43 C 683.17 373.97 675.69 383.09 667.22 391.21 C 669.22 393.07 670.84 395.28 672.44 397.49 C 679.35 406.69 686.30 415.86 693.22 425.06 C 690.10 425.06 686.99 425.06 683.88 425.07 C 676.18 414.74 668.54 404.38 660.85 394.06 C 657.87 394.06 654.90 394.06 651.93 394.06 C 652.78 404.37 652.32 414.73 652.44 425.06 C 649.79 425.06 647.14 425.06 644.50 425.06 Z" />
<path fill="#ffffff" opacity="1.00" d=" M 192.83 339.69 C 195.78 339.68 198.73 339.68 201.68 339.69 C 209.77 355.71 218.43 371.45 225.97 387.74 C 233.50 371.46 242.13 355.71 250.20 339.69 C 253.10 339.68 256.01 339.68 258.92 339.69 C 249.48 358.00 240.02 376.29 230.58 394.59 C 229.80 395.92 230.13 397.50 230.04 398.96 C 230.08 407.66 230.05 416.36 230.06 425.06 C 227.33 425.06 224.60 425.06 221.88 425.06 C 221.78 415.21 222.05 405.35 221.75 395.51 C 212.25 376.84 202.44 358.31 192.83 339.69 Z" />
<path fill="#ffffff" opacity="1.00" d=" M 367.16 340.18 C 369.52 339.40 372.43 339.34 374.77 340.23 C 375.87 343.55 375.81 347.70 374.81 351.05 C 372.39 351.98 369.42 351.93 367.00 351.05 C 366.24 347.61 365.99 343.49 367.16 340.18 Z" />
<path fill="#ffffff" opacity="1.00" d=" M 701.06 340.25 C 703.43 339.36 706.47 339.31 708.83 340.27 C 709.80 343.64 709.85 347.73 708.79 351.08 C 706.38 351.96 703.51 351.90 701.10 351.11 C 700.09 347.74 700.13 343.63 701.06 340.25 Z" />
<path fill="#ffffff" opacity="1.00" d=" M 478.62 347.56 C 481.27 347.56 483.91 347.56 486.56 347.56 C 486.57 353.52 486.56 359.47 486.57 365.43 C 493.40 365.44 500.23 365.43 507.06 365.44 C 507.06 367.45 507.05 369.47 507.06 371.50 C 500.23 371.51 493.40 371.50 486.57 371.50 C 486.58 384.64 486.54 397.79 486.58 410.93 C 486.38 414.35 488.32 418.07 491.86 418.84 C 496.27 419.72 500.82 419.15 505.29 419.31 C 505.62 421.17 505.95 423.04 506.29 424.91 C 499.71 425.76 492.72 427.03 486.28 424.80 C 481.06 422.98 478.54 417.24 478.63 412.03 C 478.60 398.52 478.64 385.01 478.62 371.50 C 474.95 371.50 471.29 371.50 467.62 371.50 C 467.62 369.47 467.62 367.45 467.62 365.44 C 471.29 365.43 474.95 365.43 478.62 365.43 C 478.62 359.48 478.62 353.52 478.62 347.56 Z" />
<path fill="#ffffff" opacity="1.00" d=" M 258.13 365.43 C 260.77 365.43 263.41 365.43 266.06 365.43 C 266.10 379.98 266.00 394.52 266.10 409.06 C 265.95 413.35 268.31 418.15 272.93 418.85 C 283.10 421.01 292.24 414.81 300.37 409.61 C 300.38 394.89 300.37 380.16 300.38 365.44 C 303.02 365.43 305.66 365.43 308.31 365.44 C 308.31 385.31 308.31 405.19 308.31 425.06 C 306.20 425.06 304.08 425.06 301.97 425.06 C 301.78 422.08 301.59 419.09 301.36 416.11 L 302.45 415.81 C 301.82 415.55 301.10 415.38 300.59 415.97 C 293.42 421.25 285.07 425.53 276.01 425.96 C 271.35 426.19 266.21 425.57 262.58 422.34 C 259.14 419.30 258.08 414.48 258.12 410.07 C 258.13 395.19 258.11 380.31 258.13 365.43 Z" />
<path fill="#ffffff" opacity="1.00" d=" M 323.50 365.44 C 325.55 365.43 327.60 365.43 329.66 365.43 C 329.95 368.98 330.24 372.53 330.53 376.09 C 338.92 369.55 348.89 363.78 359.91 364.39 C 359.58 366.73 359.24 369.07 358.90 371.42 C 348.74 370.55 339.85 376.18 331.57 381.26 C 331.56 395.86 331.57 410.46 331.56 425.06 C 328.87 425.06 326.19 425.06 323.50 425.06 C 323.49 405.19 323.50 385.31 323.50 365.44 Z" />
<path fill="#ffffff" opacity="1.00" d=" M 367.00 365.43 C 369.65 365.43 372.29 365.43 374.94 365.43 C 374.95 385.31 374.94 405.18 374.94 425.06 C 372.29 425.06 369.64 425.06 367.00 425.06 C 367.00 405.18 366.99 385.31 367.00 365.43 Z" />
<path fill="#ffffff" opacity="1.00" d=" M 528.44 365.60 C 537.80 363.80 548.23 363.60 556.88 368.16 C 564.20 372.26 566.26 381.24 566.90 388.98 C 567.39 398.34 567.47 408.48 562.63 416.84 C 558.34 423.74 549.61 425.65 542.05 425.95 C 534.30 426.17 525.76 425.63 519.43 420.63 C 513.74 415.84 512.28 407.99 511.68 400.96 C 511.24 392.30 511.31 383.13 515.19 375.17 C 517.65 369.96 522.99 366.83 528.44 365.60 M 532.45 371.82 C 528.91 372.56 525.33 374.27 523.38 377.44 C 520.59 382.09 520.17 387.69 519.95 392.98 C 519.92 399.65 519.91 406.77 523.23 412.76 C 526.63 418.39 533.92 419.34 539.91 419.28 C 545.90 419.27 553.22 417.81 556.04 411.82 C 559.16 405.01 558.97 397.25 558.65 389.92 C 558.13 384.22 557.21 377.45 551.99 374.06 C 546.16 370.62 538.92 370.75 532.45 371.82 Z" />
<path fill="#ffffff" opacity="1.00" d=" M 579.50 365.44 C 581.67 365.43 583.85 365.43 586.03 365.43 C 586.27 369.09 586.54 372.75 586.77 376.42 C 593.30 369.57 602.19 364.24 611.93 364.44 C 618.24 364.32 625.13 366.77 628.38 372.52 C 633.12 380.78 633.14 390.72 632.92 399.98 C 632.46 407.10 631.55 414.97 626.51 420.47 C 620.94 426.11 612.29 426.53 604.87 425.67 C 598.68 424.97 592.70 422.94 587.19 420.08 C 587.71 429.98 587.32 439.90 587.44 449.82 C 584.78 449.81 582.14 449.81 579.50 449.81 C 579.50 421.69 579.49 393.56 579.50 365.44 M 587.45 381.96 C 587.42 392.98 587.45 404.00 587.44 415.02 C 595.09 417.18 602.92 419.67 610.97 419.19 C 615.55 418.97 620.38 416.70 622.25 412.28 C 624.98 405.92 624.86 398.80 624.77 392.01 C 624.45 386.58 624.08 380.74 620.96 376.09 C 617.63 371.42 611.21 370.56 605.93 371.52 C 598.81 372.89 593.08 377.70 587.45 381.96 Z" />
<path fill="#ffffff" opacity="1.00" d=" M 701.00 365.43 C 703.64 365.43 706.29 365.43 708.94 365.43 C 708.95 385.31 708.94 405.18 708.94 425.06 C 706.29 425.06 703.64 425.06 701.00 425.06 C 701.00 405.18 700.99 385.31 701.00 365.43 Z" />
<path fill="#ffffff" opacity="1.00" d=" M 723.50 365.43 C 725.71 365.43 727.93 365.43 730.16 365.44 C 730.35 368.98 730.57 372.52 730.78 376.07 C 739.69 369.31 750.44 363.36 762.01 364.62 C 767.27 364.98 772.30 368.23 774.00 373.35 L 774.00 425.00 C 771.70 425.00 769.41 425.00 767.12 425.00 C 767.12 411.33 767.12 397.66 767.12 384.00 C 767.00 380.44 767.07 376.32 764.40 373.59 C 761.36 370.78 756.82 370.99 753.00 371.46 C 745.04 372.78 738.30 377.60 731.56 381.73 C 731.57 396.17 731.56 410.62 731.56 425.06 C 728.87 425.06 726.18 425.06 723.50 425.06 C 723.49 405.19 723.50 385.31 723.50 365.43 Z" />
</g>
</svg>
